<svg width="512" height="512" viewBox="0 0 512 512" fill="none" xmlns="http://www.w3.org/2000/svg">
  <rect width="512" height="512" rx="64" fill="#6366F1"/>
  <path d="M256 128C179.2 128 128 179.2 128 256s51.2 128 128 128 128-51.2 128-128-51.2-128-128-128zm0 213.3c-47.1 0-85.3-38.2-85.3-85.3s38.2-85.3 85.3-85.3 85.3 38.2 85.3 85.3-38.2 85.3-85.3 85.3z" fill="white"/>
  <path d="M256 170.7c-47.1 0-85.3 38.2-85.3 85.3s38.2 85.3 85.3 85.3 85.3-38.2 85.3-85.3-38.2-85.3-85.3-85.3zm0 128c-23.5 0-42.7-19.2-42.7-42.7s19.2-42.7 42.7-42.7 42.7 19.2 42.7 42.7-19.2 42.7-42.7 42.7z" fill="white"/>
</svg> 